<?xml version="1.0" standalone="no"?>
<!DOCTYPE svg PUBLIC "-//W3C//DTD SVG 20010904//EN"
 "http://www.w3.org/TR/2001/REC-SVG-20010904/DTD/svg10.dtd">
<svg version="1.0" xmlns="http://www.w3.org/2000/svg"
 width="750.000000pt" height="750.000000pt" viewBox="0 0 750.000000 750.000000"
 preserveAspectRatio="xMidYMid meet">

<g transform="translate(0.000000,750.000000) scale(0.100000,-0.100000)"
fill="#000000" stroke="none">
<path d="M945 4781 c-135 -69 -398 -223 -402 -237 -2 -6 3 -11 12 -11 8 0 15
4 15 9 0 5 5 6 10 3 6 -3 10 1 10 10 0 9 4 14 9 11 5 -4 12 0 15 6 4 7 4 3 2
-9 -5 -27 0 -29 20 -9 11 11 11 16 1 19 -7 3 -5 6 5 6 9 1 19 -3 23 -8 3 -6
15 -5 29 2 30 16 57 43 50 50 -3 3 4 3 17 0 17 -5 20 -3 14 7 -5 9 -4 11 3 6
9 -5 9 -13 2 -27 -6 -11 -16 -16 -22 -13 -7 5 -9 0 -6 -13 3 -12 2 -27 -3 -34
-5 -8 -9 -9 -9 -3 0 6 -6 11 -14 11 -8 0 -12 -6 -9 -14 3 -7 0 -13 -7 -13 -6
0 -9 -4 -5 -9 3 -6 -6 -6 -25 -1 -23 7 -30 6 -27 -3 2 -7 -3 -18 -12 -25 -12
-10 -13 -12 -1 -6 13 7 13 5 1 -9 -15 -19 -26 -23 -15 -6 4 7 1 10 -7 7 -8 -3
-13 -11 -11 -17 1 -6 -5 -14 -13 -17 -8 -4 -15 -12 -15 -20 0 -8 -7 -14 -15
-14 -8 0 -15 5 -15 12 0 14 -11 4 -14 -14 -2 -7 -6 -21 -11 -31 -7 -17 -9 -17
-26 -1 -17 16 -19 16 -25 0 -5 -14 -9 -15 -15 -4 -7 10 -9 9 -9 -4 0 -9 -6
-18 -12 -21 -7 -2 -2 -2 12 0 24 3 24 3 5 -12 -11 -9 -25 -13 -32 -11 -8 3
-10 -1 -6 -12 6 -15 5 -15 -11 -3 -12 10 -16 11 -14 2 2 -7 -7 -20 -19 -28
-15 -10 -23 -11 -23 -4 0 15 -47 14 -57 -1 -11 -17 -72 -38 -78 -28 -3 5 -1
11 5 15 6 4 8 11 5 16 -4 5 1 12 9 15 23 9 19 27 -4 21 -11 -3 -23 -1 -26 4
-3 5 0 8 7 7 7 -2 13 3 14 11 0 22 25 26 25 4 0 -15 2 -15 9 -3 6 8 8 17 5 21
-2 4 3 12 11 19 8 7 15 9 15 4 0 -5 4 -4 8 1 4 6 27 25 51 43 68 49 41 38 -57
-22 -87 -54 -139 -101 -161 -144 -9 -16 -12 -165 -12 -532 0 -426 2 -514 15
-537 25 -49 82 -97 188 -159 310 -183 657 -380 688 -391 51 -18 133 -16 187 5
50 19 704 391 780 443 23 16 53 44 66 62 52 71 52 67 52 582 l0 480 -31 55
c-31 55 -90 108 -161 145 -21 10 -50 27 -65 37 -14 10 -30 18 -36 18 -12 0
-59 -103 -212 -470 -70 -168 -208 -496 -307 -730 -100 -234 -183 -433 -187
-443 -10 -29 -32 -30 -78 -1 -53 34 -146 86 -215 121 -29 15 -53 33 -53 40 0
8 34 66 76 131 42 64 177 277 300 472 124 195 242 382 263 415 136 213 311
495 316 507 4 9 -8 22 -32 35 l-38 22 -55 -67 c-30 -37 -93 -112 -141 -167
-48 -55 -158 -183 -245 -285 -87 -102 -282 -329 -434 -505 -151 -177 -287
-335 -302 -353 l-27 -33 -67 42 c-73 47 -94 80 -94 150 0 49 -15 33 324 349
115 107 248 231 295 276 47 44 144 134 216 200 71 65 181 169 245 229 63 61
139 130 168 154 l52 44 -118 70 c-203 120 -268 149 -341 154 -63 5 -70 3 -166
-46z m15 -81 c0 -5 -5 -10 -11 -10 -5 0 -7 5 -4 10 3 6 8 10 11 10 2 0 4 -4 4
-10z m-70 -34 c0 -2 -7 -6 -15 -10 -8 -3 -15 -1 -15 4 0 6 7 10 15 10 8 0 15
-2 15 -4z m326 -49 c54 -29 99 -58 99 -65 0 -12 -83 -73 -374 -272 -268 -185
-560 -388 -610 -426 -24 -19 -48 -34 -52 -34 -10 0 -12 311 -3 359 5 23 19 39
58 63 55 35 56 35 161 93 39 21 103 58 143 82 41 24 77 43 82 43 5 0 15 6 22
13 32 31 333 197 359 197 8 0 60 -24 115 -53z m-378 15 c5 -15 -36 -11 -42 5
-4 8 2 12 16 9 12 -1 24 -8 26 -14z m-138 -31 c-5 -11 -16 -23 -23 -27 -8 -5
-7 -2 2 9 7 9 10 17 5 17 -5 0 -2 5 6 10 21 14 22 13 10 -9z m110 5 c0 -3 -4
-8 -10 -11 -5 -3 -10 -1 -10 4 0 6 5 11 10 11 6 0 10 -2 10 -4z m1089 -391
l31 -36 0 -450 0 -451 -27 -27 c-16 -14 -95 -65 -176 -111 -81 -47 -163 -94
-182 -105 -18 -11 -37 -17 -40 -13 -3 3 14 82 39 174 25 93 66 250 92 349 26
99 77 296 115 438 38 142 69 261 69 263 0 2 11 4 24 4 15 0 36 -13 55 -35z"/>
<path d="M460 4504 c-30 -18 -56 -38 -58 -44 -2 -6 12 0 33 14 20 14 49 31 65
38 17 7 30 16 30 20 0 13 -12 8 -70 -28z"/>
<path d="M3805 4466 c-92 -29 -159 -90 -204 -186 -21 -46 -26 -70 -26 -140 0
-76 4 -92 33 -152 38 -77 92 -130 171 -167 46 -21 70 -26 136 -26 140 1 238
64 301 191 33 67 38 84 38 152 0 90 -12 132 -57 196 -46 63 -115 115 -179 132
-65 17 -159 17 -213 0z m214 -51 c37 -19 79 -69 105 -125 17 -36 21 -65 21
-145 0 -94 -3 -106 -33 -168 -96 -194 -294 -195 -392 -3 -33 65 -35 74 -35
170 0 81 4 110 21 146 26 56 76 107 129 132 46 22 136 19 184 -7z"/>
<path d="M6248 4470 c-153 -39 -266 -245 -228 -415 14 -66 69 -147 128 -190
139 -102 311 -89 443 32 47 44 57 58 48 69 -17 21 -25 18 -70 -31 -108 -117
-261 -128 -360 -26 -62 65 -84 141 -77 275 4 78 10 102 31 138 53 91 116 124
214 113 84 -9 157 -66 193 -150 20 -47 37 -62 51 -48 6 6 4 25 -5 50 -8 22
-17 65 -21 95 -10 78 -18 88 -49 59 l-26 -24 -38 27 c-32 22 -53 27 -118 31
-43 2 -96 0 -116 -5z"/>
<path d="M2324 4459 c-10 -16 7 -27 46 -31 l35 -3 0 -285 0 -285 -35 -5 c-23
-3 -36 -11 -38 -22 -3 -16 8 -18 123 -18 115 0 126 2 123 18 -2 11 -15 19 -38
22 l-35 5 0 285 0 285 40 5 c27 3 41 10 43 23 3 15 -8 17 -127 17 -83 0 -132
-4 -137 -11z"/>
<path d="M2662 4452 c2 -9 18 -19 36 -23 19 -4 38 -11 43 -16 5 -5 8 -125 7
-284 l-3 -274 -40 -5 c-27 -3 -41 -10 -43 -22 -3 -16 7 -18 111 -18 62 0 116
3 120 6 16 17 -8 34 -48 34 -30 0 -45 5 -49 16 -3 9 -6 126 -6 261 0 266 5
285 47 182 45 -110 173 -460 173 -474 0 -16 39 -31 50 -18 8 9 104 239 164
393 52 135 64 160 76 160 7 0 9 -85 8 -257 l-3 -258 -35 -5 c-23 -3 -36 -11
-38 -22 -3 -16 8 -18 127 -18 109 0 131 2 131 15 0 14 -14 20 -65 27 -19 3
-20 11 -20 288 l0 285 32 3 c37 4 64 28 41 37 -8 3 -57 4 -109 3 l-94 -3 -24
-50 c-13 -27 -54 -124 -91 -215 -37 -91 -73 -178 -82 -194 l-15 -28 -11 28
c-6 16 -45 121 -87 234 -42 113 -80 208 -83 211 -4 4 -56 9 -115 12 -96 4
-108 3 -105 -11z"/>
<path d="M4615 4456 c-42 -126 -52 -162 -48 -170 3 -5 28 17 56 48 62 71 112
98 175 94 l47 -3 3 -282 2 -283 -38 -6 c-48 -8 -67 -18 -58 -33 8 -12 277 -16
289 -5 12 12 -6 34 -28 34 -13 0 -35 4 -50 10 l-25 10 2 277 3 278 47 3 c62 4
114 -23 169 -88 23 -27 46 -50 51 -50 15 0 8 47 -16 111 l-24 64 -277 1 c-199
1 -278 -1 -280 -10z"/>
<path d="M5292 4454 c2 -10 12 -20 23 -22 11 -1 30 -5 43 -8 l22 -4 0 -280 0
-280 -22 -4 c-13 -3 -32 -7 -43 -8 -11 -2 -20 -10 -20 -18 0 -13 38 -15 275
-15 l275 0 42 85 c68 138 55 160 -39 67 -89 -88 -142 -112 -245 -112 -72 0
-84 3 -107 24 -25 24 -26 28 -26 143 l0 119 82 -3 82 -3 16 -55 c10 -35 22
-56 33 -58 15 -3 17 10 17 137 0 90 -4 142 -11 147 -17 10 -28 -8 -38 -60 -5
-27 -15 -52 -22 -57 -8 -5 -45 -8 -84 -7 l-70 3 -3 85 c-4 108 1 126 40 146
75 39 232 -3 321 -85 40 -37 67 -51 67 -35 0 13 -54 159 -61 164 -4 3 -129 7
-279 9 -260 3 -272 2 -268 -15z"/>
<path d="M6720 4450 c0 -11 7 -14 53 -24 l27 -6 0 -281 c0 -215 -3 -281 -12
-283 -7 -3 -25 -7 -40 -10 -16 -4 -28 -13 -28 -21 0 -13 19 -15 128 -13 105 3
127 6 127 18 0 10 -13 17 -40 20 l-40 5 0 145 0 145 170 0 170 0 0 -145 0
-145 -35 -5 c-23 -3 -36 -11 -38 -23 -3 -16 6 -17 125 -15 106 3 128 6 128 18
0 10 -13 17 -40 20 l-40 5 -2 270 c-2 149 1 276 6 283 5 8 23 17 41 21 19 3
35 12 38 19 3 9 -28 12 -127 12 -83 0 -131 -4 -131 -10 0 -11 7 -14 53 -24
l27 -6 0 -120 0 -120 -175 0 -176 0 3 123 3 122 39 5 c22 3 41 11 44 18 3 9
-27 12 -127 12 -83 0 -131 -4 -131 -10z"/>
<path d="M511 4394 c0 -11 3 -14 6 -6 3 7 2 16 -1 19 -3 4 -6 -2 -5 -13z"/>
<path d="M2515 3571 c-57 -10 -105 -40 -126 -81 -56 -104 16 -187 194 -224
146 -30 187 -59 187 -130 0 -25 -9 -44 -33 -69 -85 -91 -251 -55 -327 70 -33
54 -44 63 -53 40 -4 -12 39 -176 49 -187 3 -3 14 6 25 18 l19 24 47 -23 c97
-47 228 -32 290 34 44 46 53 69 53 132 0 51 -3 60 -33 90 -23 23 -52 39 -93
49 -193 52 -207 57 -243 91 l-36 34 19 35 c32 61 116 83 191 51 20 -8 59 -37
89 -65 54 -51 83 -64 73 -32 -18 53 -50 138 -54 142 -2 3 -11 -4 -19 -14 -14
-19 -16 -19 -62 -3 -62 21 -108 27 -157 18z"/>
<path d="M5875 3572 c-69 -7 -109 -25 -157 -70 -73 -69 -101 -129 -102 -222
-1 -90 22 -146 90 -214 68 -67 103 -81 210 -81 83 0 94 2 140 30 98 61 163
189 151 295 -11 94 -83 197 -165 236 -38 18 -120 31 -167 26z m139 -65 c72
-50 98 -111 97 -226 0 -94 -19 -153 -67 -210 -63 -75 -186 -77 -256 -3 -56 58
-71 97 -76 195 -7 136 28 209 122 254 61 29 131 25 180 -10z"/>
<path d="M3079 3556 c-79 -28 -155 -115 -179 -206 -15 -56 -5 -150 20 -199 32
-63 88 -119 147 -146 49 -23 66 -27 132 -23 101 5 159 33 216 105 51 66 65
108 65 199 0 116 -64 216 -170 263 -53 24 -174 28 -231 7z m167 -27 c162 -41
204 -331 67 -464 -95 -92 -231 -59 -294 72 -27 57 -37 184 -18 250 22 78 105
148 182 152 10 1 38 -4 63 -10z"/>
<path d="M4080 3554 c0 -13 23 -24 50 -24 10 0 21 -7 24 -16 3 -9 6 -103 6
-210 0 -152 3 -201 15 -223 37 -72 126 -108 246 -98 73 6 111 22 146 59 38 41
43 72 43 283 l0 204 32 3 c17 2 33 9 36 16 3 9 -21 12 -97 12 -120 0 -139 -17
-36 -32 19 -3 20 -11 20 -210 0 -193 -1 -208 -21 -235 -60 -82 -216 -86 -289
-7 -25 27 -25 27 -25 228 0 111 4 206 8 212 4 6 24 14 45 18 21 4 37 12 35 18
-6 16 -238 17 -238 2z"/>
<path d="M7004 3551 c-17 -10 -40 -31 -52 -46 -29 -37 -30 -115 -2 -155 22
-31 94 -65 172 -81 154 -31 198 -59 198 -125 0 -82 -66 -129 -172 -122 -79 5
-145 46 -190 119 -29 49 -41 58 -53 40 -5 -9 23 -111 47 -171 l10 -25 19 24
20 24 42 -21 c157 -77 341 -2 354 146 8 87 -46 139 -172 167 -215 48 -276 108
-188 185 35 31 40 32 99 27 69 -5 135 -42 174 -97 21 -29 57 -42 48 -17 -3 6
-13 37 -23 67 -22 70 -29 77 -58 61 -20 -11 -29 -10 -55 3 -46 24 -177 22
-218 -3z"/>
<path d="M3550 3550 c0 -6 14 -13 30 -17 20 -3 32 -13 35 -27 3 -11 4 -122 3
-246 l-3 -225 -32 -3 c-25 -2 -33 -8 -33 -22 0 -18 10 -19 153 -19 83 0 181 3
216 7 l63 7 25 65 c47 124 42 139 -21 65 -70 -84 -170 -126 -250 -104 l-36 10
2 242 3 242 38 9 c67 17 39 26 -78 26 -72 0 -115 -4 -115 -10z"/>
<path d="M4730 3538 c0 -12 -12 -41 -26 -66 -20 -33 -23 -47 -14 -55 11 -12
35 8 58 48 19 33 86 65 133 65 l49 0 1 -87 c1 -49 2 -106 2 -128 -1 -22 -1
-95 -2 -162 l-1 -123 -34 0 c-37 0 -55 -15 -39 -31 14 -14 245 1 240 15 -2 6
-12 12 -23 14 -10 1 -29 5 -41 8 l-23 4 0 245 0 245 46 0 c61 0 105 -23 150
-77 26 -32 40 -41 47 -34 8 8 5 24 -11 56 -12 25 -22 54 -22 65 0 19 -8 20
-245 20 -244 0 -245 0 -245 -22z"/>
<path d="M5322 3548 c3 -7 19 -14 36 -16 l32 -3 0 -250 c0 -239 -1 -249 -19
-249 -30 0 -51 -11 -51 -26 0 -12 20 -14 108 -12 87 2 107 6 107 18 0 10 -12
16 -37 18 l-38 3 0 234 c0 128 3 240 6 249 3 9 14 16 24 16 25 0 50 10 50 21
0 5 -50 9 -111 9 -84 0 -110 -3 -107 -12z"/>
<path d="M6260 3550 c0 -11 7 -14 53 -24 l27 -6 0 -243 0 -243 -37 -10 c-21
-5 -38 -13 -38 -19 0 -11 147 -19 182 -10 35 8 27 21 -19 31 l-43 9 -3 230
c-2 196 0 227 11 215 17 -18 261 -417 278 -454 14 -30 37 -39 73 -30 l26 6 2
262 3 261 33 5 c18 3 33 10 32 15 0 6 -39 10 -95 10 -55 0 -96 -4 -97 -10 -2
-5 13 -11 32 -13 19 -2 38 -9 42 -15 10 -16 9 -346 -1 -371 -7 -17 -10 -16
-32 15 -14 19 -75 116 -135 216 l-109 183 -92 0 c-57 0 -93 -4 -93 -10z"/>
</g>
</svg>
